<svg xmlns="http://www.w3.org/2000/svg" viewBox="0 0 195.42 225.65"><defs><style>.cls-1{fill:none;stroke:#000;stroke-linecap:round;stroke-linejoin:round;stroke-width:4.54px;}</style></defs><title>Ресурс 32</title><g id="Слой_2" data-name="Слой 2"><g id="Слой_1-2" data-name="Слой 1"><path class="cls-1" d="M86.05,180.93H12.27a10,10,0,0,1-10-10V12.27a10,10,0,0,1,10-10H140.71a10,10,0,0,1,10,10V117.6"/><polyline class="cls-1" points="24.3 32.94 33.35 42.3 46.74 24.21"/><line class="cls-1" x1="65.16" y1="33.25" x2="120.93" y2="33.25"/><polyline class="cls-1" points="24.3 65.39 33.35 74.74 46.74 56.66"/><line class="cls-1" x1="65.16" y1="65.7" x2="120.93" y2="65.7"/><polyline class="cls-1" points="24.3 97.83 33.35 107.19 46.74 89.11"/><line class="cls-1" x1="65.16" y1="98.14" x2="120.93" y2="98.14"/><line class="cls-1" x1="150.71" y1="138.49" x2="150.71" y2="223.38"/><line class="cls-1" x1="108.27" y1="180.93" x2="193.16" y2="180.93"/></g></g></svg>