<?xml version="1.0" encoding="utf-8"?>
<!-- Generator: Adobe Illustrator 23.0.0, SVG Export Plug-In . SVG Version: 6.00 Build 0)  -->
<svg version="1.1" id="Слой_1" xmlns="http://www.w3.org/2000/svg" xmlns:xlink="http://www.w3.org/1999/xlink" x="0px" y="0px"
	 viewBox="0 0 512 512" style="enable-background:new 0 0 512 512;" xml:space="preserve">
<style type="text/css">
	.st0{fill:#4DA5F6;}
</style>
<path class="st0" d="M465.9,408.1c7.6-10.4,12.1-23.2,12.1-37.1c0-34.7-28.3-63-63-63c-34.7,0-63,28.3-63,63
	c0,13.9,4.5,26.7,12.1,37.1c-22.7,13.7-39.7,36.5-45.4,63.9c-2.1,9.9,0.4,20,6.8,27.8c6.3,7.8,15.7,12.2,25.7,12.2h127.6
	c10,0,19.4-4.5,25.7-12.2c6.4-7.8,8.8-17.9,6.8-27.8C505.6,444.6,488.6,421.8,465.9,408.1z M415,348c12.7,0,23,10.3,23,23
	c0,12.7-10.3,23-23,23c-12.7,0-23-10.3-23-23C392,358.3,402.3,348,415,348z M360.2,472c8.2-22.4,29.9-38,54.3-38h1
	c24.4,0,46.1,15.6,54.3,38H360.2z M334.4,325.4c6.3-9.1,4-21.5-5-27.8l-53.4-37V204h43.8c10,0,19.4-4.5,25.7-12.2
	c6.4-7.8,8.8-17.9,6.8-27.8c-5.7-27.3-22.7-50.1-45.4-63.9C314.5,89.7,319,76.9,319,63c0-34.7-28.3-63-63-63s-63,28.3-63,63
	c0,13.9,4.5,26.7,12.1,37.1c-22.7,13.7-39.7,36.5-45.4,63.9c-2,9.9,0.4,20,6.8,27.8c6.3,7.8,15.7,12.2,25.7,12.2H236v56.9l-51.8,38
	c-8.9,6.5-10.8,19-4.3,28c3.9,5.3,10,8.2,16.1,8.2c4.1,0,8.2-1.3,11.8-3.9l48.5-35.6l50.3,34.9c3.5,2.4,7.4,3.6,11.4,3.6
	C324.3,334,330.6,331,334.4,325.4z M256,40c12.7,0,23,10.3,23,23c0,12.7-10.3,23-23,23s-23-10.3-23-23C233,50.3,243.3,40,256,40z
	 M255.5,126h1c24.4,0,46.1,15.6,54.3,38H201.2C209.4,141.6,231.1,126,255.5,126z M147.9,408.1c7.6-10.4,12.1-23.2,12.1-37.1
	c0-34.7-28.3-63-63-63c-34.7,0-63,28.3-63,63c0,13.9,4.5,26.7,12.1,37.1c-22.7,13.7-39.7,36.5-45.4,63.9c-2.1,9.9,0.4,20,6.8,27.8
	c6.3,7.8,15.7,12.2,25.7,12.2h127.6c10,0,19.4-4.5,25.7-12.2c6.4-7.8,8.8-17.9,6.8-27.8C187.6,444.6,170.6,421.8,147.9,408.1z
	 M97,348c12.7,0,23,10.3,23,23c0,12.7-10.3,23-23,23c-12.7,0-23-10.3-23-23C74,358.3,84.3,348,97,348z M42.2,472
	c8.2-22.4,29.9-38,54.3-38h1c24.4,0,46.1,15.6,54.3,38H42.2z"/>
</svg>
