<?xml version="1.0" standalone="no"?>
<!DOCTYPE svg PUBLIC "-//W3C//DTD SVG 20010904//EN"
 "http://www.w3.org/TR/2001/REC-SVG-20010904/DTD/svg10.dtd">
<svg version="1.0" xmlns="http://www.w3.org/2000/svg"
 width="1000.000000pt" height="1000.000000pt" viewBox="0 0 1000.000000 1000.000000"
 preserveAspectRatio="xMidYMid meet">
<metadata>
Created by potrace 1.11, written by Peter Selinger 2001-2013
</metadata>
<g transform="translate(0.000000,1000.000000) scale(0.100000,-0.100000)"
fill="#000000" stroke="none">
<path d="M4343 9295 c-309 -56 -557 -244 -702 -532 -44 -88 -68 -184 -97 -383
-114 -794 -280 -1424 -564 -2135 -225 -566 -553 -1195 -886 -1700 -473 -718
-1013 -1341 -1563 -1801 -200 -168 -267 -250 -346 -418 -68 -144 -80 -204 -79
-396 0 -137 4 -178 22 -242 91 -330 345 -585 677 -680 70 -20 102 -23 255 -23
198 1 192 -1 500 119 411 160 985 301 1595 390 548 81 1445 135 2010 121 1100
-26 2009 -141 2890 -365 210 -54 364 -51 550 11 163 54 298 140 408 258 108
117 183 254 224 409 23 84 26 117 26 242 0 181 -26 291 -103 439 -76 144 -148
223 -360 393 -554 446 -1110 985 -1516 1473 -931 1119 -1527 2377 -1788 3775
-26 135 -55 284 -66 332 -68 304 -312 571 -615 675 -150 51 -324 65 -472 38z"/>
</g>
</svg>
